<svg width="96" height="55" viewBox="0 0 96 55" fill="none" xmlns="http://www.w3.org/2000/svg">
<path d="M25.4944 0C24.6812 0 23.9018 0.322873 23.3267 0.897743C22.7518 1.47261 22.429 2.25223 22.429 3.06541V27.965H63.046V0.00187539L25.4944 0Z" fill="white"/>
<path d="M95.261 21.1834L81.8498 5.54095C81.2675 4.86164 80.4172 4.4707 79.5224 4.4707L69.177 4.47146V31.0306C69.177 32.7235 67.8043 34.096 66.1116 34.096H22.429V43.2923C22.429 44.9852 23.8013 46.3577 25.4944 46.3577H34.4305C35.7577 50.8734 39.937 54.1809 44.877 54.1809C49.817 54.1809 53.9958 50.8734 55.3235 46.3577H63.4883C64.8154 50.8734 68.9948 54.1809 73.9348 54.1809C78.8748 54.1809 83.0536 50.8734 84.3813 46.3577H92.9342C94.6269 46.3577 95.9996 44.9852 95.9996 43.2923V23.1785C95.9994 22.4467 95.7377 21.7391 95.261 21.1834ZM44.877 48.05C42.2534 48.05 40.1192 45.9159 40.1192 43.2926C40.1192 40.669 42.2534 38.5345 44.877 38.5345C47.5001 38.5345 49.6348 40.669 49.6348 43.2926C49.6348 45.9161 47.5001 48.05 44.877 48.05ZM78.6926 43.2953C78.6909 45.9174 76.5571 48.0502 73.9348 48.0502C71.3111 48.0502 69.177 45.9161 69.177 43.2928C69.177 40.6692 71.3111 38.5347 73.9348 38.5347C76.5571 38.5347 78.6909 40.6678 78.6926 43.29C78.6926 43.2908 78.6922 43.2917 78.6922 43.2924C78.692 43.2934 78.6926 43.2941 78.6926 43.2953Z" fill="white"/>
<path d="M3.06579 20.1138C1.37305 20.1136 0 21.4863 0 23.179C0.000374997 24.8719 1.37268 26.2446 3.06541 26.2446L16.2976 26.2448V20.114L3.06579 20.1138Z" fill="white"/>
<path d="M16.2978 7.85205H13.2842C11.5914 7.85224 10.2188 9.22454 10.2188 10.9173C10.2188 12.6104 11.5914 13.9829 13.2842 13.9829H16.298L16.2978 7.85205Z" fill="white"/>
<path d="M16.2978 32.376H9.197C7.50427 32.376 6.13159 33.7483 6.13159 35.4414C6.13159 37.1341 7.50427 38.5066 9.197 38.5066H16.2981L16.2978 32.376Z" fill="white"/>
</svg>
