<svg width="72" height="72" viewBox="0 0 72 72" fill="none" xmlns="http://www.w3.org/2000/svg">
<path d="M18.9859 0C17.82 0 16.8765 0.943458 16.8765 2.10939V4.43196C9.73978 5.46654 4.22021 11.5658 4.22021 18.9845V21.3073C4.90211 21.1683 5.60707 21.0939 6.3296 21.0939H34.0329V18.9845C34.0329 11.5658 28.2321 5.46654 21.0953 4.43196V2.10939C21.0953 0.943458 20.1519 0 18.9859 0Z" fill="white"/>
<path d="M46.6885 21.0939V16.4865C49.1385 15.6128 50.9073 13.2934 50.9073 10.5469V2.10939C50.9073 0.943458 49.9639 0 48.7979 0H40.3604C39.1944 0 38.251 0.943458 38.251 2.10939V10.5469C38.251 13.2934 40.0198 15.6128 42.4698 16.4865V21.0939H46.6885Z" fill="white"/>
<path d="M63.5674 21.0939V16.4865C66.0174 15.6128 67.7862 13.2934 67.7862 10.5469V2.10939C67.7862 0.943458 66.8428 0 65.6768 0H57.2393C56.0733 0 55.1299 0.943458 55.1299 2.10939V10.5469C55.1299 13.2934 56.8987 15.6128 59.3487 16.4865V21.0939H63.5674Z" fill="white"/>
<path d="M14.7666 72.0035C17.0966 72.0035 18.9854 70.1147 18.9854 67.7847C18.9854 65.4547 17.0966 63.5659 14.7666 63.5659C12.4367 63.5659 10.5479 65.4547 10.5479 67.7847C10.5479 70.1147 12.4367 72.0035 14.7666 72.0035Z" fill="white"/>
<path d="M57.2361 72.0035C59.5661 72.0035 61.4549 70.1147 61.4549 67.7847C61.4549 65.4547 59.5661 63.5659 57.2361 63.5659C54.9061 63.5659 53.0173 65.4547 53.0173 67.7847C53.0173 70.1147 54.9061 72.0035 57.2361 72.0035Z" fill="white"/>
<path d="M65.6723 25.311H6.32817C2.83867 25.311 0 28.1497 0 31.6392V61.4519C0 62.6178 0.943459 63.5612 2.10939 63.5612H7.50183C8.96589 61.0515 11.6575 59.3425 14.7657 59.3425C17.874 59.3425 20.5656 61.0515 22.0296 63.5612H49.9709C51.4349 61.0515 54.1265 59.3425 57.2347 59.3425C60.343 59.3425 63.0346 61.0515 64.4986 63.5612H69.8911C71.057 63.5612 72.0005 62.6178 72.0005 61.4519V31.6392C72.0005 28.1497 69.1618 25.311 65.6723 25.311Z" fill="white"/>
</svg>
