<svg width="84" height="75" viewBox="0 0 84 75" fill="none" xmlns="http://www.w3.org/2000/svg">
<path d="M64.6537 37.2138H18.4713C8.3125 37.2138 0 45.5263 0 55.6851V70.5907C0 72.8876 1.85938 74.747 4.15625 74.747C6.45312 74.747 8.3125 72.8876 8.3125 70.5907V63.9932C8.3125 61.6964 10.1719 59.837 12.4688 59.837H70.6562C72.9531 59.837 74.8125 61.6964 74.8125 63.9932V70.5907C74.8125 72.8876 76.6719 74.747 78.9688 74.747C81.2656 74.747 83.125 72.8876 83.125 70.5907V55.6807C83.125 45.522 74.8125 37.2095 64.6537 37.2095V37.2138Z" fill="white"/>
<path d="M70.6563 25.1169C68.2369 25.1169 66.2813 23.1569 66.2813 20.7419V15.4569C66.2813 11.76 63.2713 8.75 59.5744 8.75H23.5506C19.8494 8.75 16.8438 11.76 16.8438 15.4569V20.7419C16.8438 23.1569 14.8881 25.1169 12.4688 25.1169C10.0494 25.1169 8.09375 23.1569 8.09375 20.7419V15.4569C8.09375 6.93437 15.0281 0 23.5506 0H59.57C68.0925 0 75.0269 6.93437 75.0269 15.4569V20.7419C75.0269 23.1569 73.0756 25.1169 70.6563 25.1169Z" fill="white"/>
<path d="M54.1275 18.7905H29.0019C25.8849 18.7905 23.3582 21.3173 23.3582 24.4343V25.3662C23.3582 28.4831 25.8849 31.0099 29.0019 31.0099H54.1275C57.2445 31.0099 59.7713 28.4831 59.7713 25.3662V24.4343C59.7713 21.3173 57.2445 18.7905 54.1275 18.7905Z" fill="white"/>
</svg>
