<svg width="26" height="26" viewBox="0 0 26 26" fill="none" xmlns="http://www.w3.org/2000/svg">
<path d="M25.6797 24.1868L21.2114 19.8197L21.1068 19.6607C20.9099 19.4666 20.6445 19.3577 20.368 19.3577C20.0915 19.3577 19.8261 19.4666 19.6292 19.6607C15.8316 23.1448 9.98169 23.3337 5.95614 20.103C1.9306 16.8724 0.982604 11.2211 3.73823 6.90174C6.49386 2.58238 12.0996 0.930509 16.8385 3.04245C21.5775 5.1544 23.9746 10.3776 22.4432 15.2444C22.3892 15.4177 22.3828 15.6024 22.4247 15.779C22.4666 15.9556 22.5553 16.1177 22.6813 16.2483C22.8088 16.3812 22.9685 16.4788 23.1448 16.5317C23.3212 16.5846 23.5082 16.5908 23.6877 16.55C23.8663 16.5106 24.0315 16.4251 24.1666 16.302C24.3018 16.1788 24.4023 16.0223 24.458 15.8482C26.286 10.073 23.5247 3.85747 17.9586 1.22351C12.3925 -1.41045 5.69464 0.324702 2.19565 5.30978C-1.30335 10.2949 -0.552363 17.0308 3.96317 21.1618C8.47871 25.2928 15.4031 25.5766 20.2598 21.8341L24.2163 25.7026C24.4149 25.8934 24.6797 26 24.9551 26C25.2305 26 25.4953 25.8934 25.6939 25.7026C25.7908 25.6077 25.8678 25.4944 25.9204 25.3693C25.9729 25.2443 26 25.11 26 24.9744C26 24.8387 25.9729 24.7045 25.9204 24.5794C25.8678 24.4544 25.7908 24.3411 25.6939 24.2462L25.6797 24.1868Z" fill="white"/>
</svg>
